<mxfile host="app.diagrams.net" modified="2024-02-05T19:09:53.179Z" agent="Mozilla/5.0 (Windows NT 10.0; Win64; x64) AppleWebKit/537.36 (KHTML, like Gecko) Chrome/120.0.0.0 Safari/537.36 OPR/106.0.0.0 (Edition std-1)" version="23.1.1" etag="7qW1oLa21d1j4w2hXCZA" type="github">
  <diagram name="PÃ¡gina-1" id="2D6GjxTy49Df7Ybtf9Nz">
    <mxGraphModel>
      <root>
        <mxCell id="0" />
        <mxCell id="1" parent="0" />
      </root>
    </mxGraphModel>
  </diagram>
</mxfile>
